<svg width="72" height="32" viewBox="0 0 72 32" fill="none" xmlns="http://www.w3.org/2000/svg">
<path d="M50.8654 23.5991H3.32486L0 31.8804H49.189L50.8654 23.5991ZM59.5949 23.5991L57.9079 31.8804H68.9943L72 23.5991H59.5949Z" fill="url(#paint0_linear)"/>
<path d="M67.9139 28.2162H61.1484L61.4851 27.2598H68.2506L67.9139 28.2162Z" fill="white"/>
<path d="M43.6967 28.2162H36.9277L37.2644 27.2598H44.0299L43.6967 28.2162Z" fill="white"/>
<path d="M28.3426 28.2162H21.5771L21.9103 27.2598H28.6758L28.3426 28.2162Z" fill="white"/>
<path d="M12.9871 28.2162H6.22168L6.55487 27.2598H13.3238L12.9871 28.2162Z" fill="white"/>
<path d="M70.1241 10.6374C70.1241 7.25802 67.9426 5.62637 65.3718 5.62637C63.5005 5.67429 61.708 6.39145 60.3178 7.64835L60.153 5.89011H56.6703L54.2854 18.1591H52.0758C50.3222 18.1591 50.196 17.3011 50.473 15.9156L52.5984 5.85846H48.1056L45.8961 16.6611C45.3174 19.404 46.3099 21.2888 49.2104 21.2888C49.6488 21.2888 51.8303 21.2571 53.6716 21.1903L51.5673 32H55.8987L57.9434 21.0672C59.0081 21.2769 60.0888 21.3946 61.1736 21.4189C67.1149 21.4189 70.1241 16.211 70.1241 10.6163V10.6374ZM65.5401 11.7732C65.5401 14.7376 64.046 18.0079 60.5107 18.0079C59.8663 18.0029 59.2255 17.9094 58.6063 17.7301L60.181 10.2787C61.2332 9.72307 62.4432 9.28 63.4393 9.28C64.6282 9.28 65.5436 9.91648 65.5436 11.7732H65.5401Z" fill="#3F4E55"/>
<path d="M52.9411 4.12838L53.6601 0.446625H44.5693L48.3536 4.12838H52.9411Z" fill="#3F4E55"/>
<path d="M41.8236 5.59824C40.0699 5.59824 38.0638 6.30154 36.24 7.22989L37.7341 0H33.2414L28.9766 21.1376H33.4518L35.6613 10.3877C37.0151 9.68439 38.397 9.17099 39.3369 9.17099C40.5504 9.17099 40.9397 9.87428 40.7994 10.9292L38.6951 21.1516H43.2019L45.4395 10.1521C45.9937 7.41275 44.5837 5.61231 41.8236 5.61231V5.59824Z" fill="#3F4E55"/>
<path d="M22.1791 21.1376L31.5469 0H26.6859L20.45 14.8853H20.3027V0H15.0629L8.26942 14.8853H8.12562V0H3.32422V21.1376H9.67582L15.2699 9.27649H15.561V21.1376H22.1791Z" fill="#3F4E55"/>
<defs>
<linearGradient id="paint0_linear" x1="0" y1="27.738" x2="72" y2="27.738" gradientUnits="userSpaceOnUse">
<stop stop-color="#5BC5F2"/>
<stop offset="0.92" stop-color="#0060AC"/>
<stop offset="1" stop-color="#005CA9"/>
</linearGradient>
</defs>
</svg>
